<svg xmlns="http://www.w3.org/2000/svg" width="660.514" height="260.146" viewBox="0 0 660.514 260.146"><g id="logo_farbe" transform="translate(-114.164 -192.123)"><g id="Gruppe_148" data-name="Gruppe 148" transform="translate(114.164 192.123)"><path id="Pfad_237" data-name="Pfad 237" d="M206.069,282.593H149.087v36.762h63.645v28.72H114.164V193.216h95.351v28.72H149.087V254.1h56.981Z" transform="translate(-114.164 -192.068)" fill="#da0035"/><path id="Pfad_238" data-name="Pfad 238" d="M230.743,195.57c11.258-2.068,27.8-3.447,46.641-3.447,22.976,0,39.06,3.447,50.088,12.407,9.42,7.352,14.475,18.15,14.475,32.4,0,19.53-14.016,33.086-27.341,37.911v.689c10.8,4.366,16.772,14.474,20.678,28.72,4.825,17.691,9.421,37.911,12.407,43.884H311.849c-2.3-4.594-6.2-17-10.569-36.072-4.366-19.531-11.028-24.585-25.5-24.814h-10.34V348.13H230.743Zm34.693,66.4h13.786c17.462,0,27.8-8.731,27.8-22.286,0-14.016-9.65-21.368-25.734-21.368-8.5,0-13.326.459-15.854,1.148Z" transform="translate(-108.279 -192.123)" fill="#da0035"/><path id="Pfad_239" data-name="Pfad 239" d="M391.105,222.625H349.289V193.216H468.306v29.409H426.03v125.45H391.105Z" transform="translate(-102.294 -192.068)" fill="#da0035"/><path id="Pfad_240" data-name="Pfad 240" d="M480.521,193.216h34.924v125.45h61.576v29.409h-96.5Z" transform="translate(-95.669 -192.068)" fill="#da0035"/></g><g id="Gruppe_149" data-name="Gruppe 149" transform="translate(303.099 363.705)"><path id="Pfad_241" data-name="Pfad 241" d="M331.424,368.382a10.565,10.565,0,0,0-1.851-3.312,10.961,10.961,0,0,0-3.494-2.848,12.083,12.083,0,0,0-5.75-1.182,10.794,10.794,0,0,0-7.177,2.186,6.78,6.78,0,0,0-2.532,5.285,6.245,6.245,0,0,0,.58,2.728,7.351,7.351,0,0,0,2.083,2.355,24.985,24.985,0,0,0,3.984,2.552q2.464,1.382,6.15,3.268a32.216,32.216,0,0,1,8.056,6.17c2.224,2.365,3.321,5.524,3.321,9.468A17.7,17.7,0,0,1,326.97,410.3a23.862,23.862,0,0,1-8,3.5,38.878,38.878,0,0,1-9.066,1.067,37.933,37.933,0,0,1-8.183-.885,34.09,34.09,0,0,1-7.7-2.8,41.93,41.93,0,0,0,2.072-5.859,56.924,56.924,0,0,0,1.234-5.994h2.263a11.367,11.367,0,0,0,1.591,4.439,11.915,11.915,0,0,0,3.042,3.263,14.107,14.107,0,0,0,3.9,2.022,13.738,13.738,0,0,0,4.379.715,10.745,10.745,0,0,0,7.052-2.308,6.873,6.873,0,0,0,2.791-5.4,6.385,6.385,0,0,0-2.791-5.463,75.977,75.977,0,0,0-7.77-4.747q-2.247-1.18-4.484-2.53a18.314,18.314,0,0,1-4.039-3.27,14.717,14.717,0,0,1-2.85-4.443,16.431,16.431,0,0,1-1.061-6.235,18.987,18.987,0,0,1,1.423-7.1,18.74,18.74,0,0,1,4.261-6.392,21.672,21.672,0,0,1,7.129-4.633,25.561,25.561,0,0,1,9.958-1.787,31.128,31.128,0,0,1,9.3,1.249c2.634.832,4.876,1.644,6.706,2.434a26.486,26.486,0,0,0-2.445,6.524,51.815,51.815,0,0,0-1.016,5.454h-2.481c-.152-.724-.411-1.621-.764-2.738" transform="translate(-294.019 -355.459)" fill="#455255"/></g><g id="Gruppe_150" data-name="Gruppe 150" transform="translate(348.854 332.3)"><path id="Pfad_242" data-name="Pfad 242" d="M368.933,345.056c-1.7,7.083-3.352,14.558-4.9,22.478a27.932,27.932,0,0,1,9.9-8.13,25.189,25.189,0,0,1,10.7-2.436q7.139,0,10.969,3.387c2.579,2.252,3.854,5.385,3.854,9.425a36.544,36.544,0,0,1-.521,5.569c-.365,2.14-.787,4.29-1.26,6.469s-.969,4.262-1.474,6.276c-.529,2.019-.933,3.731-1.239,5.161-.33,1.26-.88,3.773-1.663,7.521-.8,3.76-1.61,8.446-2.49,14.056a34.434,34.434,0,0,0-4.212-.237h-8.172c-1.389,0-3.236.07-5.522.237.793-2.385,1.477-4.595,2.073-6.649s1.172-4.083,1.726-6.1,1.132-4.144,1.723-6.4,1.279-4.88,2.065-7.879c.232-.959.56-2.175.948-3.673s.778-3.045,1.127-4.625c.366-1.588.644-3.066.892-4.441a20.278,20.278,0,0,0,.366-3.156,6.053,6.053,0,0,0-1.719-4.439,7.052,7.052,0,0,0-5.156-1.727,10.411,10.411,0,0,0-5.526,1.489,17.772,17.772,0,0,0-4.318,3.729,21.23,21.23,0,0,0-3.137,4.985,44.063,44.063,0,0,0-2.076,5.331,73.455,73.455,0,0,0-2.438,8.542c-.763,3.235-1.44,6.455-2.073,9.657s-1.194,6.2-1.662,9.013c-.485,2.8-.841,4.925-1.063,6.346a36.015,36.015,0,0,0-4.158-.237H342.2a42.154,42.154,0,0,0-4.63.237q1.9-7.469,3.912-16.067c1.334-5.729,2.669-11.524,3.965-17.375,1.319-5.851,2.573-11.589,3.8-17.245s2.331-10.942,3.331-15.891,1.845-9.367,2.618-13.268q1.1-5.878,1.7-9.425c1.267.155,2.595.288,3.979.415s2.938.174,4.683.174c1.576,0,3.1-.054,4.569-.174,1.442-.127,2.849-.26,4.2-.415q-2.843,8.9-5.4,19.493" transform="translate(-337.575 -325.563)" fill="#455255"/></g><g id="Gruppe_151" data-name="Gruppe 151" transform="translate(417.008 363.705)"><path id="Pfad_243" data-name="Pfad 243" d="M405.123,376.449a35.069,35.069,0,0,1,7.3-10.968,33.4,33.4,0,0,1,10.917-7.341,33.925,33.925,0,0,1,13.507-2.681,31.27,31.27,0,0,1,11.2,1.846,21.336,21.336,0,0,1,12.981,13.273,30.682,30.682,0,0,1,1.655,10.375,31.846,31.846,0,0,1-2.836,13.457,34.962,34.962,0,0,1-7.649,10.836,33.19,33.19,0,0,1-11.147,7.121,36.305,36.305,0,0,1-13.453,2.5,29.307,29.307,0,0,1-10.309-1.728,22.055,22.055,0,0,1-7.948-5.029,22.641,22.641,0,0,1-5.09-7.95,28.011,28.011,0,0,1-1.793-10.194,34.169,34.169,0,0,1,2.669-13.515m13.929,24.66a15.341,15.341,0,0,0,1.37,4.682,8.775,8.775,0,0,0,2.856,3.381,8.054,8.054,0,0,0,4.8,1.286,10.463,10.463,0,0,0,6.172-1.933,18.6,18.6,0,0,0,4.738-5.166,37.688,37.688,0,0,0,3.424-7.168,68.087,68.087,0,0,0,2.316-7.95,70.9,70.9,0,0,0,1.3-7.585,54.659,54.659,0,0,0,.417-6,34.03,34.03,0,0,0-.372-5.09,14.98,14.98,0,0,0-1.348-4.677,8.98,8.98,0,0,0-2.847-3.391,8.146,8.146,0,0,0-4.807-1.29,10.344,10.344,0,0,0-6.154,1.952,17.98,17.98,0,0,0-4.739,5.161,36.1,36.1,0,0,0-3.44,7.166,68.466,68.466,0,0,0-2.316,7.949,69.8,69.8,0,0,0-1.3,7.589,51.738,51.738,0,0,0-.429,5.981,37.607,37.607,0,0,0,.358,5.1" transform="translate(-402.454 -355.459)" fill="#455255"/></g><g id="Gruppe_152" data-name="Gruppe 152" transform="translate(474.763 363.478)"><path id="Pfad_244" data-name="Pfad 244" d="M523.988,391.276a41.2,41.2,0,0,1-5.573,11.742,29.324,29.324,0,0,1-8.834,8.41,21.708,21.708,0,0,1-11.608,3.21,22.688,22.688,0,0,1-9.906-2.135,17.282,17.282,0,0,1-7.056-6.048,314.659,314.659,0,0,0-7.828,37.224,44.974,44.974,0,0,0-7.819-.6c-1.5,0-2.927.068-4.261.19-1.35.11-2.58.25-3.67.415q1.166-5.1,2.767-12.4,1.619-7.3,3.328-15.429,1.738-8.128,3.48-16.857,1.8-8.728,3.4-16.683t2.844-14.722c.819-4.515,1.44-8.19,1.826-11.042,1.123.176,2.263.3,3.44.415,1.2.119,2.657.177,4.407.177,1.8,0,3.374-.058,4.668-.177,1.31-.118,2.5-.239,3.618-.415-.478,1.366-.887,2.718-1.244,4.037s-.733,2.632-1.135,3.906a24.775,24.775,0,0,1,7.3-6.807,18.688,18.688,0,0,1,9.785-2.433,22.564,22.564,0,0,1,6.041.94,18.747,18.747,0,0,1,6.584,3.438,19.318,19.318,0,0,1,5.275,7,27.254,27.254,0,0,1,2.137,11.632,45.154,45.154,0,0,1-1.959,13.027m-37.579,13.1a7.976,7.976,0,0,0,6.568,3.255,8.158,8.158,0,0,0,5.23-1.9,18.961,18.961,0,0,0,4.217-4.9,38.014,38.014,0,0,0,3.126-6.716,63.565,63.565,0,0,0,2.134-7.351c.555-2.448.965-4.758,1.246-6.935a44.777,44.777,0,0,0,.419-5.271,12.167,12.167,0,0,0-2.373-7.764,8.049,8.049,0,0,0-6.752-3.029,8.493,8.493,0,0,0-5.35,1.842,18.614,18.614,0,0,0-4.2,4.748,31.28,31.28,0,0,0-3.083,6.519c-.824,2.42-1.513,4.788-2.072,7.168a65.816,65.816,0,0,0-1.245,6.757,42.753,42.753,0,0,0-.4,5.335,12.943,12.943,0,0,0,2.539,8.239" transform="translate(-457.433 -355.243)" fill="#455255"/></g><g id="Gruppe_153" data-name="Gruppe 153" transform="translate(540.664 363.478)"><path id="Pfad_245" data-name="Pfad 245" d="M586.736,391.276a41.247,41.247,0,0,1-5.578,11.742,29.21,29.21,0,0,1-8.827,8.41,21.768,21.768,0,0,1-11.622,3.21A22.728,22.728,0,0,1,550.8,412.5a17.338,17.338,0,0,1-7.045-6.048,316.613,316.613,0,0,0-7.819,37.224,45.066,45.066,0,0,0-7.824-.6c-1.508,0-2.911.068-4.273.19-1.342.11-2.55.25-3.674.415q1.184-5.1,2.8-12.4,1.577-7.3,3.291-15.429c1.163-5.419,2.318-11.032,3.507-16.857s2.316-11.381,3.385-16.683,2.011-10.2,2.835-14.722,1.45-8.19,1.842-11.042c1.106.176,2.25.3,3.429.415,1.2.119,2.65.177,4.4.177,1.812,0,3.38-.058,4.686-.177s2.513-.239,3.6-.415c-.47,1.366-.881,2.718-1.248,4.037-.349,1.33-.731,2.632-1.105,3.906a24.355,24.355,0,0,1,7.288-6.807,18.675,18.675,0,0,1,9.776-2.433,22.634,22.634,0,0,1,6.041.94,18.66,18.66,0,0,1,6.58,3.438,19.265,19.265,0,0,1,5.267,7c1.438,3,2.144,6.876,2.144,11.632a45.5,45.5,0,0,1-1.956,13.027m-37.589,13.1a7.971,7.971,0,0,0,6.578,3.255,8.077,8.077,0,0,0,5.221-1.9,19.148,19.148,0,0,0,4.215-4.9,36.755,36.755,0,0,0,3.141-6.716,65.325,65.325,0,0,0,2.136-7.351c.545-2.448.964-4.758,1.239-6.935a44.742,44.742,0,0,0,.411-5.271,12.163,12.163,0,0,0-2.365-7.764,8.063,8.063,0,0,0-6.76-3.029,8.469,8.469,0,0,0-5.329,1.842,18.352,18.352,0,0,0-4.212,4.748,30.957,30.957,0,0,0-3.074,6.519,69.972,69.972,0,0,0-2.081,7.168c-.555,2.365-.963,4.627-1.243,6.757a42.851,42.851,0,0,0-.427,5.335,13.008,13.008,0,0,0,2.551,8.239" transform="translate(-520.167 -355.243)" fill="#455255"/></g><g id="Gruppe_154" data-name="Gruppe 154" transform="translate(613.45 364.898)"><path id="Pfad_246" data-name="Pfad 246" d="M605.99,357.006c1.478.13,3.04.183,4.686.183,2.054,0,3.777-.053,5.157-.183s2.675-.25,3.855-.411q-1.195,3.8-3.025,10.964-1.844,7.185-3.667,15.48c-1.234,5.53-2.374,11.014-3.385,16.465-1.03,5.457-1.771,10.035-2.242,13.761a34.045,34.045,0,0,0-4.161-.237h-9.658a31.6,31.6,0,0,0-4.1.237q1.79-5.933,3.738-13.872t3.673-15.956q1.725-7.986,3.08-15.167c.914-4.77,1.524-8.673,1.847-11.676,1.336.16,2.741.292,4.2.411" transform="translate(-589.455 -356.595)" fill="#455255"/></g><g id="Gruppe_155" data-name="Gruppe 155" transform="translate(645.339 363.705)"><path id="Pfad_247" data-name="Pfad 247" d="M681.7,370.937a31.764,31.764,0,0,1-.526,3.617c-.287,1.425-.662,3.156-1.134,5.211s-1.112,4.707-1.9,7.943q-1.063,4.395-1.841,7.7c-.507,2.219-.958,4.323-1.353,6.293s-.752,3.9-1.06,5.756c-.325,1.841-.682,3.807-1.074,5.863a32.9,32.9,0,0,0-4.027-.237H659.35a34.333,34.333,0,0,0-4.205.237c.321-.724.812-2.167,1.481-4.341s1.422-4.646,2.258-7.458,1.658-5.788,2.482-8.952,1.617-6.168,2.324-9.022c.695-2.822,1.3-5.377,1.764-7.627a27.558,27.558,0,0,0,.727-4.929,6.307,6.307,0,0,0-1.845-4.968,7.27,7.27,0,0,0-5.043-1.663q-4.251,0-8.479,3.683c-2.792,2.436-5.039,6.269-6.7,11.479-.622,1.99-1.3,4.31-2.017,7s-1.39,5.556-2.065,8.593-1.313,6.172-1.9,9.372-1.087,6.142-1.484,8.836a33.272,33.272,0,0,0-4.078-.237H624.1a35.277,35.277,0,0,0-4.287.237c1.041-3.645,2.06-7.473,3.091-11.507s2.059-8.3,3.074-12.867q1.543-6.808,3.157-14.755,1.6-7.929,3.373-17.542c1.192.161,2.545.292,4.086.411s3.019.183,4.448.183a38.3,38.3,0,0,0,3.913-.183c1.26-.119,2.49-.25,3.681-.411-.323,1.019-.591,1.916-.827,2.663s-.444,1.491-.6,2.186c-.169.721-.339,1.479-.521,2.26-.21.794-.427,1.748-.669,2.844a33.537,33.537,0,0,1,9.25-8.237,23.632,23.632,0,0,1,12.081-2.91q7.481,0,10.984,3.56a12.264,12.264,0,0,1,3.488,8.882c0,1.039-.042,2.047-.121,3.036" transform="translate(-619.812 -355.459)" fill="#455255"/></g><g id="Gruppe_156" data-name="Gruppe 156" transform="translate(707.105 363.478)"><path id="Pfad_248" data-name="Pfad 248" d="M692.419,385a15.009,15.009,0,0,1-2.788-9.367,18.7,18.7,0,0,1,6.4-13.982,24.487,24.487,0,0,1,8.129-4.634,34.534,34.534,0,0,1,11.681-1.771,29.655,29.655,0,0,1,4.978.358c1.406.232,2.79.506,4.149.831,1.83.471,3.163.776,4.016.936a17.779,17.779,0,0,0,3.2.236c.552,0,1.474-.005,2.74-.054,1.251-.042,2.618-.1,4.03-.183s2.8-.16,4.139-.236c1.358-.083,2.384-.156,3.089-.229a12.833,12.833,0,0,0-.774,2.781,20.322,20.322,0,0,0-.178,2.912q-2.5-.132-5.035-.181c-1.7-.043-3.371-.058-5.045-.058a15.943,15.943,0,0,1,4.277,11.014,20.185,20.185,0,0,1-.358,3.563,16.127,16.127,0,0,1-1.367,4.136,21.953,21.953,0,0,1-2.6,4.219,14.917,14.917,0,0,1-4.093,3.61,23.62,23.62,0,0,1-5.329,2.565,38.815,38.815,0,0,1-5.281,1.345,29.352,29.352,0,0,1-4.751.541c-1.463.044-2.658.061-3.607.061-.241,0-.665-.017-1.249-.061s-1.206-.063-1.831-.063c-.643,0-1.236-.018-1.779-.038-.558-.053-.953-.07-1.185-.07a4.95,4.95,0,0,0-4.154,1.83,5.947,5.947,0,0,0-1.417,3.621c0,2.207.943,3.568,2.838,4.025a42.373,42.373,0,0,0,8.186.946q1.649.132,3.682.248c1.331.073,2.721.173,4.138.293,1.436.119,2.8.288,4.166.53a14.484,14.484,0,0,1,3.544,1.065,12.247,12.247,0,0,1,5.8,5.107,14.72,14.72,0,0,1,2.016,7.584,22.886,22.886,0,0,1-1.891,8.9,25.31,25.31,0,0,1-5.744,8.235,30,30,0,0,1-9.675,6.089,36.144,36.144,0,0,1-13.75,2.379,53.493,53.493,0,0,1-8.346-.712,30.635,30.635,0,0,1-8.25-2.5,16.159,16.159,0,0,1-6.168-4.917,12.987,12.987,0,0,1-2.367-8,12.4,12.4,0,0,1,1.373-5.815,17.339,17.339,0,0,1,3.364-4.558,16.806,16.806,0,0,1,4.8-3.2,19.629,19.629,0,0,1,5.641-1.588l.232-.587a10.934,10.934,0,0,1-4.347-3.328,8.732,8.732,0,0,1-1.568-5.329,9.365,9.365,0,0,1,1.056-4.512,12.418,12.418,0,0,1,2.729-3.49,15.055,15.055,0,0,1,3.836-2.5,29.11,29.11,0,0,1,4.344-1.606l.1-.714A17.781,17.781,0,0,1,692.419,385m-1.946,47.134a10.405,10.405,0,0,0,3.317,3.969,13.539,13.539,0,0,0,4.909,2.181,26.424,26.424,0,0,0,5.989.657,24.446,24.446,0,0,0,7.827-1.126,15.165,15.165,0,0,0,5.45-3.076,12.575,12.575,0,0,0,3.2-4.531,13.669,13.669,0,0,0,1.059-5.382,10.148,10.148,0,0,0-.94-4.615,6.987,6.987,0,0,0-3.375-3.08,21.591,21.591,0,0,0-6.461-1.729,81.862,81.862,0,0,0-10.2-.523,21.093,21.093,0,0,0-3.141.239,8.964,8.964,0,0,0-3.253,1.184,11.579,11.579,0,0,0-4.028,4.208,10.962,10.962,0,0,0-1.553,5.628,13.584,13.584,0,0,0,1.2,6m16.234-45.765c.947,1.7,2.8,2.535,5.559,2.535a7.6,7.6,0,0,0,5.587-2.255,17.028,17.028,0,0,0,3.61-5.445,30.544,30.544,0,0,0,1.974-6.7,36.319,36.319,0,0,0,.574-5.98,17.376,17.376,0,0,0-.245-2.845,8.26,8.26,0,0,0-.987-2.864,6.266,6.266,0,0,0-5.885-3.074,7.339,7.339,0,0,0-5.556,2.384,18.049,18.049,0,0,0-3.616,5.693,29,29,0,0,0-1.9,6.749,37.559,37.559,0,0,0-.55,5.574,12.663,12.663,0,0,0,1.434,6.226" transform="translate(-678.61 -355.243)" fill="#455255"/></g><g id="Gruppe_157" data-name="Gruppe 157" transform="translate(600.708 265.029)"><path id="Pfad_249" data-name="Pfad 249" d="M649.661,269.737c1.3.239,2.649.555,4.093.954,8.8,2.507,17.661,12.589,16.073,28.507l-.947,5.226c-3.9,14.818-18.609,31.312-56,48.551C583.938,323.7,575.956,303.1,577.51,287.86l.963-5.232c4.091-15.479,15.94-21.792,25.05-21.043,1.493.121,2.872.307,4.171.533,10.35,1.877,14.5,7.256,18.942,15.049,6.91-5.739,12.7-9.316,23.026-7.429m-1.809,10c-5.932-1.078-8.76.275-14.73,5.25l-9.291,7.727L617.826,282.2c-3.848-6.745-5.994-9-11.941-10.078a29.026,29.026,0,0,0-3.205-.417c-4.209-.344-11.419,2.889-14.293,13.175l-.8,4.358c-1.159,13.36,8.091,30.627,27.525,51.42,25.508-12.643,40.263-25.559,43.85-38.464l.793-4.367c.921-10.638-4.717-16.2-8.766-17.366h0a30.608,30.608,0,0,0-3.14-.728" transform="translate(-577.326 -261.526)" fill="#da0035"/></g></g></svg>