<svg clip-rule="evenodd" fill-rule="evenodd" stroke-linejoin="round" stroke-miterlimit="2" viewBox="0 0 2221 2904" xmlns="http://www.w3.org/2000/svg"><g fill="#fff"><path d="m.443-.716c-.036-.016-.101-.031-.17-.031-.147 0-.233.072-.233.198 0 .071.028.109.07.144.062.049.158.093.189.113.043.031.062.057.062.096 0 .059-.041.097-.142.097-.068 0-.136-.017-.18-.038l-.012.119c.045.016.122.031.195.031.179 0 .259-.084.259-.213 0-.066-.021-.117-.074-.158-.052-.038-.156-.086-.201-.118-.032-.022-.049-.047-.049-.08 0-.054.041-.082.118-.082.059 0 .117.016.157.034z" fill-rule="nonzero" transform="matrix(365.6192 0 0 365.6192 -9.872076 2898.798783)"/><path d="m.014-.736v.116h.172v.62h.123v-.62h.173v-.116z" fill-rule="nonzero" transform="matrix(365.6192 0 0 365.6192 184.783586 2898.798783)"/><path d="m.071-.736v.736h.394v-.116h-.272v-.219h.247v-.11h-.247v-.175h.27v-.116z" fill-rule="nonzero" transform="matrix(365.6192 0 0 365.6192 370.253066 2898.798783)"/><path d="m597.01009376 2629.70305184h45.3367808v269.0957312h-45.3367808z" stroke-width="365.6192"/><g fill-rule="nonzero"><path d="m.071-.736v.736h.114v-.491l.342.491h.084v-.736h-.114v.487l-.328-.487z" transform="matrix(365.6192 0 0 365.6192 669.037076 2898.798783)"/><path d="m.071-.736v.736h.122v-.322h.283v.322h.122v-.736h-.122v.29h-.283v-.29z" transform="matrix(365.6192 0 0 365.6192 921.917596 2898.798783)"/><path d="m8311.3 3914.92-107.6 294.4h50.8l25.2-72.4h116.8l25.2 72.4h51.6l-107.2-294.4zm26.4 54 42.8 122.8h-85.2zm70.6-124.01h-45.2v45.2h45.2zm-94.4 0h-45.2v45.2h45.2z" transform="matrix(.914048 0 0 .914048 -6334.783514 -948.727229)"/><path d="m.061-.736v.516c0 .155.121.233.263.233.146 0 .265-.082.265-.233v-.516h-.121v.505c0 .088-.061.128-.143.128-.08 0-.141-.039-.141-.128v-.505z" transform="matrix(365.6192 0 0 365.6192 1399.681345 2898.798783)"/><path d="m.443-.716c-.036-.016-.101-.031-.17-.031-.147 0-.233.072-.233.198 0 .071.028.109.07.144.062.049.158.093.189.113.043.031.062.057.062.096 0 .059-.041.097-.142.097-.068 0-.136-.017-.18-.038l-.012.119c.045.016.122.031.195.031.179 0 .259-.084.259-.213 0-.066-.021-.117-.074-.158-.052-.038-.156-.086-.201-.118-.032-.022-.049-.047-.049-.08 0-.054.041-.082.118-.082.059 0 .117.016.157.034z" transform="matrix(365.6192 0 0 365.6192 1634.335748 2898.798783)"/><path d="m.071-.736v.736h.394v-.116h-.272v-.219h.247v-.11h-.247v-.175h.27v-.116z" transform="matrix(365.6192 0 0 365.6192 1819.832649 2898.798783)"/><path d="m.194-.317h.108l.159.317h.132l-.181-.339c.074-.032.119-.094.119-.198 0-.133-.07-.199-.227-.199-.11 0-.186.003-.233.005v.731h.123zm0-.306c.02-.002.057-.003.105-.003.08 0 .11.028.11.098 0 .078-.036.113-.097.113h-.118z" transform="matrix(365.6192 0 0 365.6192 2003.656842 2898.798783)"/></g></g><path d="m393.914 79.377 288.576 153.437v479.682h-239.457s32.64-28.22 39.024-33.77c24.746-21.516 67.411-64.54 61.266-121.706-2.054-19.112-10.44-37.87-19.2-54.88-15.321-29.18-38.878-52.878-60.758-77.418-15.54-17.429-54.288-52.045-72.086-80.19-5.907-9.34-32.782-55.81 2.635-92.224-61.631 9.781-128.589 77.202-58.829 150.158 22.648 23.684 71.564 68.859 81.663 81.382 8.25 10.23 19.978 25.822 25.178 37.852 8.26 19.84 12.31 40.98 9.32 62.43-4.418 31.694-21.488 51.812-39.192 65.958-25.495 20.37-58.088 28.272-88.739 28.638-42.099.179-217.978.014-217.978.014v-445.926zm-254.807 172.931v392.664l184.198-.016c2.735 0 15.454-.068 23.418-1.662 10.414-2.085 21.642-5.704 30.562-11.394 13.15-7.72 24.66-17.26 32.34-30.63 7.47-13.2 9.93-28.81 7.31-43.72-2.311-13.331-6.931-26.662-21.91-46.16-20.08-25.7-63.776-64.069-87.576-89.154-24.7-26.035-49.536-73.947-30.482-122.051 36.739-92.753 177.384-81.647 177.384-81.647s-19.698 25.663-25.23 33.77c-7.39 10.829-35.001 40.296-7.479 77.004 9.109 12.15 42.687 47.984 63.85 70.182 22.481 23.578 49.204 52.496 66.804 82.816 17.18 28.73 27.54 63.06 25.59 96.69-1.39 31.72-14.1 62.69-34.01 87.27-2.92 3.68-9.87 12.456-9.87 12.456h114.715v-426.418l-254.818-135.478z" fill="#ffb81c" fill-rule="nonzero" transform="matrix(3.84728 0 0 3.84728 -405.254 -305.386)"/></svg>